<?xml version="1.0" encoding="utf-8"?>
<!-- Generator: Adobe Illustrator 25.4.1, SVG Export Plug-In . SVG Version: 6.00 Build 0)  -->
<svg version="1.1" id="Layer_1" xmlns="http://www.w3.org/2000/svg" xmlns:xlink="http://www.w3.org/1999/xlink" x="0px" y="0px"
	 viewBox="0 0 257.3 257.3" style="enable-background:new 0 0 257.3 257.3;" xml:space="preserve">
<style type="text/css">
	.st0{fill:#E65311;}
	.st1{fill:#FFFFFF;}
	.st2{fill:#F5F5F5;}
	.st3{fill:none;stroke:#F6F6F6;stroke-width:6;stroke-miterlimit:10;stroke-dasharray:5;}
</style>
<path class="st0" d="M227.3,257.3H30c-16.6,0-30-13.4-30-30V30C0,13.4,13.4,0,30,0h197.3c16.6,0,30,13.4,30,30v197.3
	C257.3,243.9,243.9,257.3,227.3,257.3z"/>
<path class="st1" d="M88.1,117.7V35.3c0-3.1-3.7-5.7-8.2-5.7h-41c-4.5,0-8.2,2.5-8.2,5.7v125.1c0,3.1,3.7,5.7,8.2,5.7h41
	c4.5,0,8.2-2.5,8.2-5.7v-34.1V117.7z"/>
<path class="st1" d="M108.6,166.1h110.6c4.5,0,8.2-3.1,8.2-6.8V125c0-3.8-3.7-6.8-8.2-6.8H108.6c-4.5,0-8.2,3.1-8.2,6.8v34.2
	C100.4,163,104.1,166.1,108.6,166.1z"/>
<path class="st1" d="M219.2,29.6H108.6c-4.5,0-8.2,2.3-8.2,5.2v70.8c0,2.9,3.7,5.2,8.2,5.2h110.6c4.5,0,8.2-2.3,8.2-5.2V34.8
	C227.4,31.9,223.7,29.6,219.2,29.6z"/>
<g>
	<circle class="st2" cx="128.7" cy="204.4" r="14.1"/>
	<g>
		<path class="st0" d="M122.1,202.5h4.6v-4.6h3.9v4.6h4.6v3.9h-4.6v4.6h-3.9v-4.6h-4.6V202.5z"/>
	</g>
</g>
<path class="st3" d="M100.4,226h118.8c4.5,0,8.2-2.8,8.2-6.2V189c0-3.4-3.7-6.2-8.2-6.2H38.9c-4.5,0-8.2,2.8-8.2,6.2v30.9
	c0,3.4,3.7,6.2,8.2,6.2h49.2H100.4z"/>
</svg>
